# xmcd
#
# Track frame offsets:
#	150
#	25226
#	50147
#	98445
#	115162
#	140610
#	155662
#	177701
#	196279
#	220484
#	251299
#	276282
#	292669
#	310255
#
# Disc length: 4577 seconds
#
# Revision: 0
# Processed by: cddbd v1.5.2PL0 Copyright (c) Steve Scherf et al.
# Submitted via: EZCDAudioConverter 2.1.7.1
#
DISCID=cf11df0e
DTITLE=The Verve - Urban Hymns 5/5
DYEAR=1900
DGENRE=
TTITLE0=One Day [Haigh Hall 24.05.98]
TTITLE1=History [Haigh Hall 24.05.98]
TTITLE2=Come On [Haigh Hall 24.05.98]
TTITLE3=A New Decade [Washington DC 9.30 Club 03.11.97]
TTITLE4=The Rolling People [Brixton Academy 16.01.98]
TTITLE5=On Your Own [Brixton Academy 16.01.98]
TTITLE6=History [Brixton Academy 16.01.98]
TTITLE7=Slide Away [Manchester Academy 11.08.97]
TTITLE8=A Man Called Sun [Washington DC 9.30 Club 03.11.97]
TTITLE9=A Northern Soul [Washington DC 9.30 Club 03.11.97]
TTITLE10=Space And Time [Brixton Academy 16.01.98]
TTITLE11=This Is Music [Manchester Academy 11.08.97]
TTITLE12=Weeping Willow [Washington DC 9.30 Club 03.11.97]
TTITLE13=Stormy Clouds [Manchester Academy 11.08.97]
EXTD=
EXTT0=
EXTT1=
EXTT2=
EXTT3=
EXTT4=
EXTT5=
EXTT6=
EXTT7=
EXTT8=
EXTT9=
EXTT10=
EXTT11=
EXTT12=
EXTT13=
PLAYORDER=
